<?xml version="1.0" encoding="utf-8"?>
<!-- Generator: Adobe Illustrator 16.0.0, SVG Export Plug-In . SVG Version: 6.00 Build 0)  -->
<!DOCTYPE svg PUBLIC "-//W3C//DTD SVG 1.1//EN" "http://www.w3.org/Graphics/SVG/1.1/DTD/svg11.dtd">
<svg version="1.1" id="Layer_1" xmlns="http://www.w3.org/2000/svg" xmlns:xlink="http://www.w3.org/1999/xlink" x="0px" y="0px"
	 width="800px" height="800px" viewBox="0 0 800 800" enable-background="new 0 0 800 800" xml:space="preserve">
<g>
	<g>
		<polygon fill="#EA5338" points="794.728,748.186 794.728,787.814 5.272,787.814 5.272,708.598 44.916,708.598 44.916,748.186 		
			"/>
		<polygon fill="#EA5338" points="794.728,12.186 794.728,51.835 44.916,51.835 44.916,91.451 5.272,91.451 5.272,12.186 		"/>
	</g>
	<path fill="#EA5338" d="M794.728,376.524c0-26.651-13.381-63.533-77.102-87.931c-39.198-15.016-85.378-20.336-113.017-20.336
		c-38.043,0-72.609,19.418-92.458,51.932c-5.522,9.062-14.849,14.306-24.947,14.056l-427.92-10.426
		c-14.327-0.354-27.861,4.959-38.106,14.975c-10.265,10.001-15.906,23.41-15.906,37.73s5.641,27.729,15.906,37.73
		c10.245,10.016,23.779,15.328,38.106,14.98l427.913-10.445c10.105-0.244,19.432,5.014,24.954,14.062
		c19.849,32.521,54.415,51.953,92.458,51.953c27.639,0,73.819-5.342,113.017-20.35C781.347,440.057,794.728,403.168,794.728,376.524
		z M533.989,419.525c-10.182-16.691-28.362-26.762-47.418-26.303L58.666,403.654c-7.379,0.188-14.355-2.553-19.627-7.706
		c-5.286-5.146-8.179-12.06-8.179-19.425c0-7.379,2.893-14.278,8.179-19.432c5.272-5.153,12.248-7.894,19.627-7.713l427.905,10.446
		c19.057,0.459,37.236-9.619,47.418-26.317c15.162-24.843,41.569-39.684,70.62-39.684c53.692,0,164.546,20.225,164.546,82.7
		c0,62.474-110.854,82.693-164.546,82.693C575.559,459.225,549.151,444.383,533.989,419.525z"/>
</g>
</svg>
