<?xml version="1.0" encoding="utf-8"?>
<!-- Generator: Adobe Illustrator 16.0.0, SVG Export Plug-In . SVG Version: 6.00 Build 0)  -->
<!DOCTYPE svg PUBLIC "-//W3C//DTD SVG 1.1//EN" "http://www.w3.org/Graphics/SVG/1.1/DTD/svg11.dtd">
<svg version="1.1" id="Layer_1" xmlns="http://www.w3.org/2000/svg" xmlns:xlink="http://www.w3.org/1999/xlink" x="0px" y="0px"
	 width="800px" height="800px" viewBox="0 0 800 800" enable-background="new 0 0 800 800" xml:space="preserve">
<path fill="#E9DDD1" d="M535.887,220.764l147.535,147.498H39.999c-17.601,0-31.699,14.118-31.699,31.737
	c0,17.618,14.099,31.718,31.699,31.718h643.423l-147.535,147.5c-6.118,6.119-9.4,14.338-9.4,22.336c0,8.221,3.061,16.201,9.4,22.303
	c12.439,12.459,32.419,12.459,44.858,0L782.3,422.301c5.861-5.861,9.4-14.082,9.4-22.302c0-8.459-3.301-16.458-9.4-22.318
	L580.745,176.144c-12.439-12.458-32.419-12.458-44.858,0C523.667,188.346,523.667,208.563,535.887,220.764z"/>
</svg>
