<?xml version="1.0" encoding="utf-8"?>
<!-- Generator: Adobe Illustrator 16.0.0, SVG Export Plug-In . SVG Version: 6.00 Build 0)  -->
<!DOCTYPE svg PUBLIC "-//W3C//DTD SVG 1.1//EN" "http://www.w3.org/Graphics/SVG/1.1/DTD/svg11.dtd">
<svg version="1.1" id="Layer_1" xmlns="http://www.w3.org/2000/svg" xmlns:xlink="http://www.w3.org/1999/xlink" x="0px" y="0px"
	 width="800px" height="800px" viewBox="0 0 800 800" enable-background="new 0 0 800 800" xml:space="preserve">
<g>
	<g>
		<polygon fill="#EA5338" points="792.631,753.224 792.631,792.642 7.373,792.642 7.373,713.841 46.805,713.841 46.805,753.224 		
			"/>
		<polygon fill="#EA5338" points="792.631,7.358 792.631,46.812 46.805,46.812 46.805,86.202 7.373,86.202 7.373,7.358 		"/>
	</g>
	<path fill="#EA5338" d="M781.59,483.431c7.042-0.345,12.45-6.344,12.111-13.386c-0.352-7.027-6.337-12.449-13.378-12.09
		l-217.905,10.893v-39.826h218.539c7.041,0,12.759-5.71,12.759-12.759c0-7.042-5.718-12.752-12.759-12.752H562.418v-39.827
		l217.905,10.894c7.042,0.352,13.026-5.056,13.378-12.098c0.366-7.041-5.07-13.026-12.111-13.386l-256.674-12.815
		c-13.984-0.711-27.49,6.091-35.25,17.737l-10.281,15.414c-2.788,4.176-7.436,6.569-12.463,6.436l-406.738-12.04
		c-14.273-0.388-27.771,4.879-38.024,14.829c-10.238,9.971-15.878,23.321-15.878,37.608c0,14.294,5.64,27.645,15.878,37.608
		c10.252,9.964,23.751,15.23,38.052,14.829l406.71-12.034c5.028-0.134,9.675,2.254,12.463,6.437l10.281,15.421
		c7.76,11.646,21.265,18.441,35.25,17.737L781.59,483.431z M510.889,464.37l-10.28-15.421
		c-7.689-11.534-20.561-18.182-34.433-17.772L59.479,443.203c-7.323,0.197-14.273-2.5-19.533-7.626
		c-5.253-5.119-8.147-11.971-8.147-19.314c0-7.337,2.894-14.188,8.147-19.314c5.26-5.105,12.21-7.81,19.512-7.612l406.717,12.027
		c13.872,0.415,26.729-6.225,34.433-17.773l10.28-15.421c2.803-4.21,7.704-6.668,12.759-6.422l13.252,0.669v107.707l-13.252,0.661
		C518.592,471.045,513.691,468.58,510.889,464.37z"/>
</g>
</svg>
