<?xml version="1.0" encoding="UTF-8" standalone="no"?>
<!-- Generator: Adobe Illustrator 16.0.0, SVG Export Plug-In . SVG Version: 6.00 Build 0)  -->

<svg
   xmlns:dc="http://purl.org/dc/elements/1.1/"
   xmlns:cc="http://creativecommons.org/ns#"
   xmlns:rdf="http://www.w3.org/1999/02/22-rdf-syntax-ns#"
   xmlns:svg="http://www.w3.org/2000/svg"
   xmlns="http://www.w3.org/2000/svg"
   xmlns:sodipodi="http://sodipodi.sourceforge.net/DTD/sodipodi-0.dtd"
   xmlns:inkscape="http://www.inkscape.org/namespaces/inkscape"
   version="1.1"
   id="Layer_1"
   x="0px"
   y="0px"
   width="800px"
   height="323.983px"
   viewBox="0 0 800 323.983"
   enable-background="new 0 0 800 323.983"
   xml:space="preserve"
   sodipodi:docname="textos_maze_t2.svg"
   inkscape:version="0.92.4 (unknown)"><metadata
   id="metadata73"><rdf:RDF><cc:Work
       rdf:about=""><dc:format>image/svg+xml</dc:format><dc:type
         rdf:resource="http://purl.org/dc/dcmitype/StillImage" /><dc:title /></cc:Work></rdf:RDF></metadata><defs
   id="defs71" /><sodipodi:namedview
   pagecolor="#ffffff"
   bordercolor="#666666"
   borderopacity="1"
   objecttolerance="10"
   gridtolerance="10"
   guidetolerance="10"
   inkscape:pageopacity="0"
   inkscape:pageshadow="2"
   inkscape:window-width="2542"
   inkscape:window-height="1038"
   id="namedview69"
   showgrid="false"
   inkscape:zoom="1.28125"
   inkscape:cx="630.70893"
   inkscape:cy="206.79157"
   inkscape:window-x="8"
   inkscape:window-y="8"
   inkscape:window-maximized="0"
   inkscape:current-layer="Layer_1" />
<g
   id="g66">
	<path
   fill="#364056"
   d="M485.05,162.632c-4.63,8.46-10.66,15.82-17.42,22.58c0.18-6.48-0.08-12.97,0.25-19.45   c0.38-7.47,0.4-8.17-2.229-9.93c-3.091-3.21-8.36-5.311-9.95-2.42c-3.59,6.52-7.181,13.029-10.771,19.55   c-2.27,4.12-5.92,13.729-11.04,16.609c-2.79-4.52-0.87-14.52,0.021-18.029c1.29-5.101,3.34-10.08,6.38-14.391   c6.91-9.82,21.01-14.12,29.17-3.189c1.68,2.25,5.86,5.7,8.97,4.729c3.07-0.96,2.88-3.649,1.11-6.01   c-8.37-11.21-22.56-19.15-36.75-14.91c-10.61,3.16-17.53,13.29-20.79,23.891c-0.58,0.17-1.11,0.47-1.54,0.939   c-4.58,4.98-9.31,9.851-14.42,14.311c-1.82,1.59-5.26,4.979-8.78,7.71c0.82-2.86,1.78-5.591,2.13-6.851   c1.15-4.21,3.52-9.359,3.02-13.79c-0.74-6.6-8.52-11.399-14.77-10.359c-7.71,1.29-15.56,8.52-21.14,13.64   c-1.82,1.67-3.55,3.41-5.2,5.22c0.41-7.609,1.15-15.2,2.49-22.74c0.92-5.21-11.66-12.479-12.71-6.58   c-1.1,6.21-1.8,12.45-2.24,18.711c-0.25,0.18-0.47,0.43-0.65,0.729c-5.95,9.92-12.36,19.98-20.05,28.65   c-0.21,0.229-0.44,0.46-0.7,0.689c0.38-10.25,1.32-20.479,2.03-30.71c0.36-5.319-12.31-12.26-12.7-6.58   c-0.16,2.32-0.36,4.66-0.56,7c-0.88,0.29-1.58,0.91-1.95,1.971c-4.61,13.01-9.66,25.899-15.1,38.59   c-2.18,5.09-4.43,10.17-6.82,15.18c1.49-4.649,2.6-9.38,2.52-14.17c-0.1-6.28-2.72-12.38-7.21-16.79c-0.81-0.8-1.77-1.6-2.71-2.29   c0.11-0.26,0.21-0.55,0.31-0.88c0.48-0.69,0.96-1.39,1.44-2.08c1.22-1.75,2.51-3.439,3.75-5.17c7.03-9.76,15.79-26.5-1.43-31.37   c-12.4-3.5-24.57,6.07-28.96,17.061c-0.8,0.31-1.43,0.93-1.77,1.92c-1.56,4.56-3.9,8.93-6.34,13.069c-1.55,2.63-3.2,5.2-5.07,7.601   c-1.66,2.13-4.66,3.899-6.23,5.92c-0.87-2.54-1.31-5.28-1.72-7.92c-0.57-3.721-0.93-7.5-1.09-11.271c0.06-0.43,0.05-0.87-0.04-1.31   c-0.01-0.431-0.03-0.86-0.04-1.29c-0.02-1.04-0.57-6.021-2.74-7.45c-5.26-3.47-7.78-2.08-8.73,1.58c-0.22,0.21-0.41,0.45-0.55,0.77   c-2.62,5.99-5.74,11.681-9.67,16.91c-1.97,2.62-4.07,5.19-6.49,7.4c-0.19,0.08-0.35,0.16-0.49,0.25c-0.05-1.66,0.05-3.32,0.31-4.97   c1.28-11.25,9.26-32.65,23.78-30.45c3.22,0.479,4.32-1.931,3.35-4.62c-1.13-3.141-5.24-5.62-8.38-6.09   c-11.29-1.711-19.45,5.239-24.74,14.63c-0.86,1.53-1.72,3.2-2.53,4.979c-0.63,0.2-1.15,0.601-1.48,1.24   c-2.35,4.62-4.95,9.141-7.71,13.54c-3.38,5.4-8.77,15.9-15.36,18.08c-6.26,2.07-8.65-6.5-12.82-9.479   c-3.44-2.461-7.28-3.271-11.05-1.24c-6.53,3.51-12.08,9.35-18.27,13.439c-0.94,0.69-1.93,1.29-2.97,1.82   c0.37,3.3,0.32,3.51-0.12,0.62c-0.48-3.86-0.6-7.8-0.88-11.68c-0.67-9.311,0.19-23.891-12.6-25.49   c-9.15-1.15-19.64,12.74-25.37,18.26c-4.44,4.28-8.96,8.5-14.26,11.7c-0.67,0.41-1.36,0.8-2.05,1.17   c-0.19-0.96-0.38-1.87-0.41-2.521c-0.37-9.02,0.89-18.199,2.3-27.09c0.83-5.229-11.78-12.45-12.71-6.569   c-0.22,1.359-0.47,2.84-0.74,4.42c-0.97,0.26-1.74,0.899-2.13,2.04c-1.56,4.56-3.9,8.93-6.34,13.069c-1.55,2.63-3.2,5.2-5.07,7.601   c-1.67,2.13-4.67,3.899-6.23,5.92c-0.88-2.54-1.32-5.28-1.72-7.92c-0.57-3.721-0.93-7.5-1.09-11.271c0.06-0.43,0.04-0.87-0.04-1.31   c-0.01-0.431-0.04-0.86-0.04-1.29c-0.02-1.04-0.57-6.021-2.74-7.45c-5.27-3.47-7.78-2.08-8.73,1.58c-0.23,0.21-0.42,0.45-0.55,0.77   c-2.62,5.99-5.75,11.681-9.68,16.91c-1.96,2.62-4.07,5.19-6.48,7.4c-0.19,0.08-0.35,0.16-0.49,0.25c-0.05-1.66,0.05-3.32,0.31-4.97   c1.28-11.25,9.26-32.65,23.78-30.45c3.22,0.479,4.32-1.931,3.35-4.62c-1.13-3.141-5.24-5.62-8.38-6.09   c-11.29-1.711-19.45,5.239-24.74,14.63c-5.01,8.87-9.94,22.649-5.83,32.66c2.82,6.84,11.65,13.569,19.32,10.54   c4.81-1.9,8.95-6.46,12.39-11.67c0.83,3.18,1.48,5.29,1.48,5.29c2.38,3.989,5.76,7.069,10.6,8.439c7.03,1.98,13.15-2.39,18.06-8.72   c1.18,4.27,3.31,7.939,6.85,10.439c9.03,6.381,18.67-0.96,25.78-6.89c4.08-3.39,7.83-7.15,11.64-10.84   c2.48-2.41,5.83-6.36,9.41-9.22c0.05,0.77,0.11,1.54,0.16,2.319c0.35,4.811,0.54,9.67,1.04,14.471   c0.65,6.13,2.86,11.39,8.28,14.779c12.68,7.95,23.72-5.85,34.11-13.02c0.36,0.34,0.71,0.68,0.99,0.979   c1.45,1.58,3.05,2.98,4.79,4.221c3.62,2.58,7.9,4.59,12.37,5.14c6.01,0.729,10.13-2.1,14.18-6.28c2.17-2.24,4.18-4.67,6.06-7.22   c3.73,5.729,11.22,10.4,17.85,7.78c4.81-1.9,8.95-6.46,12.39-11.67c0.83,3.18,1.48,5.29,1.48,5.29   c2.38,3.989,5.76,7.069,10.6,8.439c14.28,4.021,24.81-18.18,29.03-29.74c0.8-0.31,1.42-0.93,1.74-1.93   c1.47-4.55,4.17-8.42,8.1-11.21c0.89-0.63,3.64-2.16,6.06-3.26c-2.47,8.2-13.1,15.43-15.09,22.92c-0.84,3.16,0.5,5.91,2.76,8.229   c3.91,4,7.81,4.24,8.09,10.94c0.52,12.479-7.24,26.59-11.11,38.229c-2.45,7.4-2.3,15.37,5.58,19.381   c10.34,5.27,17.58-9.921,21.52-17.091c6.97-12.64,12.61-26.02,18.01-39.38c2.77,6.42,9.2,11.78,16.2,8.13   c6.55-3.43,11.59-11.18,15.82-17.33v2.521c0,3.67,9.52,12.91,12.28,7.6c3.87-7.43,8.59-14.27,14.43-20.29   c2.52-2.6,7.77-8.01,13-11.58c-0.41,1.221-0.81,2.381-1.09,3.41c-1.21,4.44-2.44,8.92-2.74,13.54   c-0.41,6.261,1.89,11.95,8.28,14.17c7.3,2.551,13.87-3.79,19.21-7.989c3.319-2.61,6.51-5.36,9.579-8.25   c2.271,9.06,8.07,17.8,17.471,18.479c7.54,0.54,11.66-7.72,14.84-13.28c0.39-0.689,0.78-1.39,1.17-2.08   c-0.29,5.87-0.33,10.551-0.4,11.671c-22.88,19.14-48.84,35.71-58.78,64.71c-6.8,19.819,1.66,45.67,23.6,51.489   c25.83,6.87,35.61-26.909,39.521-45.479c4.34-20.601,6.92-41.48,8.26-62.46c11.76-10,22.76-20.83,30.21-34.46   C499.66,166.222,487.59,157.981,485.05,162.632z M446.97,255.472c-2.62,13.54-5.13,28.91-14.229,39.79   c-4.391,5.26-12.98,11.6-19.75,6.57c-5.66-4.2-7.521-13-7.49-19.62c0.1-25.561,23.87-45.86,41.93-60.71   c1.681-1.38,3.37-2.76,5.07-4.13C451.22,230.142,449.42,242.852,446.97,255.472z"
   id="path60" />
	<path
   fill="#364056"
   d="M320.84,113.212c-0.91,8.329-1.81,16.659-2.72,24.989c-0.57,5.29,12.08,12.36,12.71,6.58   c0.9-8.33,1.81-16.66,2.71-24.99C334.12,114.502,321.47,107.432,320.84,113.212z"
   id="path62" />
	<path
   fill="#364056"
   d="M787.24,163.892c-2.58,9.66-6.811,18.82-12.2,27.24c-3.75,5.86-9.74,15.54-17.15,17.21   c-8.31,1.87-13.27-11.26-16-22.1c6.37-8.62,11.46-17,14.16-21.4c21.98-35.78,43.54-81.551,35.55-124.62   c-2.069-11.16-6.51-26.41-18.84-30.17c-12.56-3.83-23.14,10.76-28.59,20.029c-15.54,26.391-19.12,61.131-20.06,91.11   c-0.4,12.79-0.261,25.9,1.21,38.761c-6.301-5.03-13.7-7.601-21.051-3.58c-3.8,2.08-6.67,5.71-8.869,9.81   c-0.591,0.23-1.11,0.57-1.551,1.01c-8.64,8.82-16.21,9.141-24.409-0.63c-0.891-3.27-1.971-6.45-3.171-9.479   c-0.81-2.061-3.67-4.08-6.42-5.09c-1.939-1.421-4.14-2.311-5.79-1.931c-5.949,1.38-9.79,8.7-12.239,16.41   c-0.351,0.2-0.66,0.44-0.94,0.72c-8.64,8.82-16.2,9.141-24.399-0.63c-0.9-3.27-1.98-6.45-3.171-9.479   c-0.81-2.061-3.67-4.08-6.43-5.09c-1.93-1.421-4.13-2.311-5.78-1.931c-4.55,1.061-7.869,5.58-10.27,11.101   c-0.68,0.199-1.23,0.67-1.55,1.439c-6.44,15.53-20.03,27.83-35.82,33.21c0.49-3.55,1.021-7.06,1.55-10.49   c0.76-4.8,1.63-9.569,2.55-14.34c25.921-20.99,44.21-54.18,49.311-86.79c1.7-10.88,4.55-26.27-4.33-34.93   c-3.021-2.95-7.66-5.48-12.03-4.74c-6.97,1.17-10.859,11.17-13.64,16.62c-7.32,14.31-12.22,29.729-16.94,45.05   c-5.51,17.86-10.489,35.9-14.27,54.21c-1.771,8.521-3.5,17.521-4.88,26.74c-6.021-2.04-14.42-0.85-13.11,7.33   c1.061,6.67,5.37,10.59,10.83,12.62c-1.69,23.06,0.22,46.34,10.77,66.04c1.11,2.07,9.801,9.81,11.811,5.05   c8.83-20.9,9.01-44.14,0.229-65.15c-0.71-1.71-1.5-3.489-2.359-5.289c1.14-0.271,2.229-0.591,3.24-0.94   c8.5-2.96,16.159-8.271,22.52-14.95c0.28,8.13,3.07,15.94,11.84,18.82c10.641,3.5,18.37-5.84,20.96-15.22   c1.45-5.301,1.75-10.86,1.26-16.421c3.341,4.051,11.521,4.54,19.75,1.86c-0.069,0.48-0.149,0.94-0.21,1.37   c-1.63,10.72-1.05,24.38,11.2,28.41c10.641,3.5,18.37-5.84,20.96-15.22c1.46-5.301,1.75-10.86,1.271-16.421   c3.109,3.771,10.43,4.45,18.069,2.36c-2.05,8.24-2.649,17.89,2.641,24.96c12.2,16.311,28.479,4.88,41.79-10.49   c3.75,8.33,9.12,15.811,17.2,20.29c25.659,14.23,43.479-26.88,48.51-45.689C801.29,165.441,788.84,157.922,787.24,163.892z    M577.53,97.432c2.42-7.23,5.01-14.4,8.149-21.351c1.36-2.979,2.801-5.92,4.36-8.81c1.53-2.85,4.75-6.22,5.64-9.26   c0.25,2.859-0.1,5.89-0.3,8.729c-0.439,6.37-1.36,12.7-2.75,18.931c-4.34,19.489-13.31,37.659-25.32,53.569   c-1.14,1.511-2.359,3.061-3.619,4.61C567.71,128.191,572.42,112.701,577.53,97.432z M553.71,254.792   c-2.86-12.391-3.229-25.511-2.39-38.5c0.91,2.75,1.67,5.56,2.26,8.42C555.63,234.651,555.65,244.901,553.71,254.792z    M604.8,188.872c-1.25,4.409-3.85,6.31-6.1,9.859c-1.16,1.811-0.8,3.21-1.2,1.511c-0.53-2.271-0.16-4.83,0.03-7.12   c0.31-3.82,1.01-7.62,1.93-11.33c1-4.03,2.3-7.931,3.95-11.73c0.33-0.77,0.82-2.14,1.42-3.6c0.92,4.35,1.38,8.79,1.24,13.229   C605.97,182.762,605.65,185.912,604.8,188.872z M657.77,188.872c-1.26,4.409-3.85,6.31-6.109,9.859c-1.15,1.811-0.8,3.21-1.2,1.511   c-0.53-2.271-0.16-4.83,0.03-7.12c0.319-3.82,1.02-7.62,1.939-11.33c0.99-4.03,2.29-7.931,3.94-11.73c0.33-0.77,0.82-2.14,1.42-3.6   c0.92,4.35,1.38,8.79,1.25,13.229C658.94,182.762,658.61,185.912,657.77,188.872z M707.97,200.042c-1.71,1.14-4.6,2.529-6.45,3.1   c-0.069-0.32-0.13-0.75-0.109-1.33c0.07-2.14-0.36-4.27-0.17-6.46c0.37-4.45,1.49-8.92,3-13.13c1.75-4.9,7.47-19.32,15.09-16.479   c3.87,1.46,7.08,7.859,8.83,11.43c0.03,0.04,0.06,0.09,0.08,0.14c0.04,0.15,0.06,0.311,0.1,0.46c0.09,0.391,0.2,0.79,0.29,1.19   C722.71,186.821,716.06,194.702,707.97,200.042z M736.67,135.392c0.14-24.51,2.99-49.53,9.71-73.15   c3.12-10.96,7.5-21.689,14.54-30.76c2.4-3.08,7.82-10.52,11.67-11.25c1.78-0.33,0.41-0.66,1.94,1.33   c0.83,1.09,1.359,3.25,1.8,4.479c1.17,3.271,2,6.62,2.63,10.021c6.12,33.28-7.05,67.57-21.79,96.85   c-5.66,11.25-11.97,22.211-18.99,32.681C736.99,155.582,736.62,145.441,736.67,135.392z"
   id="path64" />
</g>
<path
   style="fill:none;stroke:#ff0000;stroke-width:12px;stroke-linecap:butt;stroke-linejoin:miter;stroke-opacity:1"
   d="m 45.392043,144.72347 c -0.483233,3.38264 -14.640019,-5.35392 -28.418206,10.35573 -14.2306249,16.22552 -15.5948373,53.74125 7.143556,32.86029 9.630984,-8.84425 8.328391,-21.63845 11.822,-24.78982 8.627174,8.57503 -8.767915,33.02487 12.809857,30.93244 -1.231672,-1.71324 5.999342,-6.36257 16.047334,-13.86721 9.003394,-6.72446 1.589091,-22.15724 7.501475,-22.50867 0.413412,16.39897 -8.271322,39.20857 3.309682,41.22328 0,0 6.162129,2.95364 21.877599,-12.09819 15.71546,-15.05184 20.99,-31.97406 26.50175,-18.39379 5.51176,13.58028 1.69589,24.51249 1.69589,24.51249 0,0 3.80686,18.24386 20.96752,3.79522 17.16067,-14.44865 18.70277,-5.0499 18.70277,-5.0499 0,0 15.1929,18.97499 30.80112,-6.10371 15.60822,-25.07869 21.9881,-36.60689 21.9881,-36.60689 l 14.6806,-1.82257 c 0,0 -15.43188,-7.01217 -23.19583,12.30679 -7.76396,19.31897 -4.88,30.11719 -4.88,30.11719 0,0 9.49138,9.4932 16.664,-4.58244 7.17261,-14.07565 10.5793,-20.22248 10.5793,-20.22248 l 4.81359,26.72355 c 0,0 4.87674,9.68575 9.34977,6.86114 4.47305,-2.8246 9.00325,-12.3344 17.53752,-28.23741 8.53425,-15.903 11.37663,-17.24104 17.71586,-18.43825 6.33921,-1.19721 15.86565,2.99469 5.23234,15.67581 -10.63331,12.68111 -7.65166,12.3623 -4.36724,18.12528 3.28442,5.76298 7.24982,7.73717 4.83377,24.6466 -2.41606,16.90944 -16.40503,52.0951 -5.01328,39.0318 11.39177,-13.06329 9.85357,-13.23563 20.41846,-35.67785 10.56487,-22.4422 20.93,-60.81696 20.93,-60.81696 l -0.59905,46.70509 c 0,0 2.61545,10.4748 12.25745,-3.41862 9.642,-13.89344 22.53286,-33.41831 22.53286,-33.41831 l -0.0803,-13.55926 c -2.24856,-6.45621 -3.47889,35.9465 -3.85249,50.11488 8.78567,-9.69689 14.68854,-28.75806 30.86314,-36.1459 1.69682,-2.74102 15.95531,-8.23299 8.21572,14.25795 -4.92035,14.29835 -0.25888,16.06467 -0.25888,16.06467 0,0 9.69066,-0.0309 20.77068,-13.89019 34.0753,-42.62268 27.8163,-46.49416 58.33434,-26.16156 15.56547,10.37049 -20.58195,-10.83655 -20.58195,-10.83655 0,0 -26.17553,20.88215 -25.03816,32.38708 1.13737,11.50491 6.64028,23.76943 6.64028,23.76943 0,0 9.373,-2.72597 14.12689,-12.91991 4.7539,-10.19396 15.39357,-29.16862 15.39357,-29.16862 -3.6156,28.05324 0.0183,51.01515 -4.87868,84.22494 -2.16297,20.10145 -7.20129,48.55403 -22.46722,62.56742 -6.70124,10.84591 -34.55694,11.52648 -35.90916,-22.23509 -0.39933,-9.97033 11.47554,-36.89805 15.32495,-38.2284 9.13271,-14.05631 20.58971,-19.31189 30.64874,-29.19976 18.1009,-17.41408 42.83295,-30.35079 49.43093,-55.53168 L 437.21637,81.165681 329.20755,109.15344 c -1.10401,11.6454 -6.52057,14.66572 -2.54492,36.47045 l 0.965,-33.85483 103.99018,-35.485558 81.32943,88.547618 0.82955,22.40667 c 0,0 28.13428,19.07064 38.37422,25.04768 17.50176,10.21575 9.51311,60.01902 2.35622,67.7036 -6.34334,6.81104 -8.29955,-31.04164 -8.29955,-31.04164 -4.40101,-20.5171 -0.86025,-41.82837 -0.6284,-62.80875 9.16981,-43.64246 24.39197,-92.359253 37.36693,-121.018354 0,0 5.57491,-15.710163 12.41867,-13.45261 6.84377,2.257551 8.35175,9.271022 6.10014,18.013855 0.0539,16.330735 -9.06029,52.244989 -14.98014,53.778909 -6.00266,6.88466 -14.01223,24.87357 -18.47141,28.17689 -5.14779,3.81343 -9.06831,5.74362 -14.06632,12.67814 -4.83597,6.70971 2.37156,26.80807 -17.4673,28.19218 5.43181,8.81156 14.89256,12.87153 24.51655,9.54757 0.858,-3.86098 14.29598,-7.31276 18.1223,-13.83316 3.96992,-6.76511 6.02257,-7.98612 12.26047,-17.31112 6.2379,-9.325 11.67889,-15.87648 10.62774,-11.92309 -1.05115,3.95339 -10.13153,16.02709 -10.40054,27.19458 -0.26902,11.16748 3.80858,14.87995 7.61857,18.66623 3.80999,3.7863 8.98234,-5.46042 10.71431,-10.32724 1.73196,-4.86706 2.57296,-8.82744 2.36112,-15.85341 -0.21179,-7.02596 -1.89868,-13.77942 -4.34703,-19.39308 -2.44835,-5.61367 -8.65793,-1.62596 -9.75974,-1.73647 -1.10183,-0.1105 2.84113,15.96572 11.02675,16.03188 8.52107,0.0689 14.88702,4.57984 18.78575,6.40404 5.38672,-2.14378 6.50537,-7.92627 10.82316,-11.81387 4.3178,-3.88762 2.23058,-3.31139 6.0945,-6.58987 3.86391,-3.2785 14.59809,-10.77824 5.47841,6.75916 -9.06653,17.43518 -5.11018,8.25241 -6.62717,21.30543 -1.58121,13.60551 8.72068,15.71633 11.45582,15.85973 2.73513,0.1434 12.23308,-13.34332 11.72261,-18.69716 -0.51046,-5.35383 -4.07979,-27.97767 -5.94598,-29.60505 -1.86618,-1.62739 14.64456,20.99099 16.05094,21.32844 1.40637,0.33744 4.80505,4.95416 10.82785,-0.26813 6.02281,-5.22231 35.16467,-15.24054 35.16467,-15.24054 0,0 -15.10582,-8.16199 -20.83325,6.51685 -5.72742,14.67883 -8.89253,26.48561 -5.56338,34.41342 3.32915,7.9278 13.11998,4.11007 27.97241,-7.55851 14.85246,-11.66878 43.83318,-69.81477 43.83318,-69.81477 13.04882,-24.81756 14.86166,-37.342116 18.48548,-60.327552 L 785.15737,36.859439 777.6313,19.657013 c 0,0 -8.84953,-8.922592 -24.13808,9.052514 -15.28855,17.975106 -19.27124,56.117557 -19.27124,56.117557 l -4.47523,70.240676 5.58826,32.8898 c 0,0 14.20993,19.92226 22.466,24.41633 8.25607,4.49408 15.34565,-7.06927 15.34565,-7.06927 15.3242,-16.57314 13.35592,-29.34354 19.98251,-34.36295 l 3.11495,-20.51263"
   id="path3893"
   inkscape:connector-curvature="0"
   sodipodi:nodetypes="cssccsccsscscsccscscccssscsssccsccccscsscscscccsccccccccccsscccsccssccsssscssccscccsssscsscsssccccscccsccc" />
</svg>