<?xml version="1.0" encoding="utf-8"?>
<!-- Generator: Adobe Illustrator 16.0.0, SVG Export Plug-In . SVG Version: 6.00 Build 0)  -->
<!DOCTYPE svg PUBLIC "-//W3C//DTD SVG 1.1//EN" "http://www.w3.org/Graphics/SVG/1.1/DTD/svg11.dtd">
<svg version="1.1" id="Layer_1" xmlns="http://www.w3.org/2000/svg" xmlns:xlink="http://www.w3.org/1999/xlink" x="0px" y="0px"
	 width="800px" height="237.564px" viewBox="0 0 800 237.564" enable-background="new 0 0 800 237.564" xml:space="preserve">
<g>
	<path fill="#364056" d="M80.385,175.5c-3.926,11.476-15.382,37.54-31.176,33.088c-5.09-1.436-8.651-4.682-11.153-8.883
		c0,0-0.688-2.224-1.564-5.563c-3.611,5.477-7.969,10.276-13.033,12.277c-8.071,3.191-17.366-3.888-20.327-11.091
		c-4.332-10.536,0.865-25.033,6.132-34.374c5.566-9.873,14.147-17.188,26.028-15.395c3.312,0.5,7.638,3.108,8.828,6.416
		c1.019,2.829-0.141,5.367-3.527,4.855c-15.279-2.31-23.679,20.21-25.03,32.044c-0.272,1.738-0.372,3.481-0.32,5.231
		c0.147-0.09,0.312-0.18,0.509-0.261c2.547-2.327,4.759-5.026,6.829-7.784c4.136-5.513,7.427-11.49,10.178-17.801
		c0.144-0.333,0.346-0.591,0.581-0.806c1.001-3.853,3.649-5.318,9.187-1.669c2.286,1.507,2.867,6.751,2.885,7.849
		c0.007,0.45,0.03,0.897,0.043,1.348c0.089,0.469,0.108,0.932,0.044,1.387c0.165,3.968,0.542,7.944,1.145,11.858
		c0.426,2.779,0.89,5.657,1.811,8.33c1.646-2.124,4.804-3.983,6.554-6.23c1.968-2.524,3.71-5.233,5.334-7.99
		c2.57-4.363,5.037-8.956,6.679-13.76C69.164,162.307,82.128,170.404,80.385,175.5z"/>
	<path fill="#364056" d="M238.43,168.576c-1.64,4.8-4.11,9.4-6.68,13.76c-1.62,2.761-3.36,5.471-5.33,7.99
		c-1.75,2.25-4.91,4.11-6.55,6.23c-0.92-2.67-1.39-5.55-1.81-8.33c-0.61-3.91-0.98-7.891-1.15-11.86c0.06-0.45,0.05-0.92-0.04-1.38
		c-0.02-0.45-0.04-0.9-0.05-1.35c-0.01-1.101-0.6-6.34-2.88-7.851c-5.54-3.649-8.19-2.18-9.19,1.67
		c-0.23,0.21-0.44,0.471-0.58,0.801c-2.75,6.31-6.04,12.29-10.18,17.81c-2.07,2.75-4.28,5.45-6.83,7.78
		c-0.19,0.08-0.36,0.17-0.5,0.26c-0.06-1.75,0.04-3.49,0.32-5.23c1.35-11.84,9.75-34.35,25.03-32.05c3.38,0.521,4.54-2.02,3.52-4.85
		c-1.19-3.311-5.51-5.92-8.82-6.42c-11.81-1.78-20.37,5.43-25.93,15.22c-0.88,0.32-1.58,0.97-1.97,2.04
		c-5.13,14.33-11.49,28.15-19.23,41.26c-3.06,5.181-6.05,11.36-10.51,15.48c-8.18,7.54-7.63-13.49-7.59-18.391
		c0.07-7.939,0.34-15.88,0.77-23.81c0.24-0.21,0.45-0.46,0.61-0.78c16.23-32.16,30.27-65.68,39.44-100.57
		c4.57-17.38,8.23-35.36,9.27-53.33c0.39-6.79-0.39-11.93-6.54-15.86c-4.95-3.17-10.22-3.09-14.89,0.58
		c-12.29,9.67-16.68,29.26-20.83,43.46c-5.49,18.81-9.95,37.94-13.32,57.25c-3.37,19.32-5.68,38.82-6.89,58.39
		c-0.61,9.78-0.94,19.58-1,29.38c-0.05,7.921-0.68,16.62,2.9,23.95c6.66,13.66,23.46,18.561,33.16,5.78
		c5.59-7.36,10.42-15.51,14.68-23.99c4.24,4.28,10.43,7.01,16.03,4.8c5.07-2,9.42-6.8,13.04-12.27c0.87,3.34,1.56,5.56,1.56,5.56
		c2.5,4.2,6.06,7.45,11.15,8.88c15.8,4.45,27.25-21.609,31.18-33.09C253.54,170.406,240.58,162.306,238.43,168.576z M150.23,110.216
		c2.67-14.47,5.93-28.81,9.79-43c3.69-13.57,7.11-28.35,14.39-40.53c0.94-1.56,1.94-3.15,3.05-4.64c0.01,0.98,0.01,1.86-0.06,2.5
		c-0.44,3.95-0.96,7.89-1.57,11.81c-2.1,13.57-5.18,26.97-8.93,40.16c-5.49,19.28-12.43,38.09-20.35,56.479
		C147.61,125.375,148.84,117.776,150.23,110.216z"/>
	<path fill="#364056" d="M784.95,168.576c-1.641,4.811-4.11,9.4-6.681,13.76c-1.619,2.761-3.359,5.471-5.329,7.99
		c-1.75,2.25-4.91,4.11-6.551,6.23c-0.92-2.67-1.39-5.55-1.81-8.33c-0.61-3.91-0.98-7.891-1.15-11.86
		c0.07-0.45,0.051-0.92-0.04-1.38c-0.01-0.45-0.04-0.9-0.05-1.35c-0.01-1.101-0.59-6.34-2.88-7.851c-5.54-3.649-8.18-2.18-9.19,1.67
		c-0.229,0.21-0.43,0.471-0.579,0.801c-2.75,6.31-6.04,12.29-10.181,17.81c-2.069,2.75-4.279,5.45-6.819,7.78
		c-0.2,0.08-0.37,0.17-0.511,0.26c-0.06-1.75,0.04-3.49,0.32-5.23c1.35-11.84,9.75-34.35,25.03-32.05
		c3.38,0.521,4.54-2.02,3.52-4.85c-1.189-3.311-5.51-5.92-8.819-6.42c-11.881-1.79-20.471,5.52-26.03,15.399
		c-0.98,1.74-1.96,3.66-2.88,5.7c-1.061,0.25-1.87,0.94-2.21,2.21c-2.721,10.17-7.17,19.8-12.841,28.66
		c-3.939,6.17-10.25,16.36-18.05,18.11c-8.739,1.96-13.97-11.851-16.84-23.25c6.71-9.08,12.061-17.891,14.91-22.521
		c23.12-37.66,45.81-85.82,37.4-131.15c-2.171-11.74-6.851-27.79-19.82-31.74c-13.22-4.03-24.351,11.32-30.09,21.07
		c-16.351,27.77-20.12,64.33-21.11,95.88c-0.42,13.46-0.27,27.26,1.28,40.791c-6.63-5.29-14.42-8-22.16-3.771
		c-2.35,1.29-4.36,3.14-6.09,5.33c-0.641,0.2-1.17,0.6-1.55,1.23c-6.261,10.439-13,21.02-21.101,30.14
		c-0.21,0.24-0.46,0.49-0.72,0.74c0.39-10.79,1.38-21.551,2.13-32.32c0.38-5.6-12.96-12.91-13.37-6.92
		c-0.18,2.58-0.39,5.17-0.62,7.77c-0.7,0.36-1.22,0.99-1.479,1.95c-2.721,10.17-7.16,19.8-12.83,28.66
		c-3.95,6.17-10.25,16.36-18.05,18.11c-8.75,1.96-13.98-11.851-16.841-23.25c6.7-9.08,12.061-17.891,14.9-22.521
		c23.13-37.66,45.82-85.82,37.41-131.15c-2.18-11.74-6.85-27.79-19.83-31.74c-13.22-4.03-24.35,11.32-30.09,21.07
		c-16.351,27.77-20.12,64.33-21.11,95.88c-0.42,13.46-0.27,27.26,1.28,40.791c-6.62-5.29-14.42-8-22.16-3.771
		c-2.32,1.271-4.31,3.09-6.02,5.24c-0.841,0.149-1.561,0.57-2.04,1.32c-8.08,12.52-22.141,22.869-36.24,27.619
		c-1.33,0.45-4.93,0.601-7.14,1.07c0.149-2.17,0.13-5.46,0.3-6.68c0.41-0.08,0.8-0.23,1.14-0.45c7.4-4.84,17.18-12.04,20.86-20.4
		c3.05-6.949-2.271-13.909-9.36-15.409c-8.04-1.7-15.04,6.579-19.08,12.579c-0.05,0.07-0.1,0.141-0.14,0.221
		c-0.99,0.1-1.79,0.55-2.24,1.439c-2.479,4.87-5.22,9.63-8.12,14.261c-3.56,5.68-9.22,16.729-16.16,19.02
		c-6.59,2.18-9.1-6.84-13.5-9.979c-3.609-2.58-7.65-3.431-11.62-1.301c-6.87,3.7-12.71,9.84-19.23,14.15
		c-0.99,0.72-2.03,1.36-3.12,1.91c0.38,3.479,0.34,3.689-0.13,0.649c-0.51-4.069-0.64-8.199-0.93-12.29
		c-0.7-9.79,0.2-25.14-13.25-26.819c-9.63-1.21-20.67,13.399-26.7,19.22c-4.67,4.5-9.43,8.94-15.01,12.31
		c-0.71,0.431-1.43,0.841-2.15,1.23c-0.21-1.01-0.41-1.97-0.44-2.66c-0.38-9.479,0.94-19.149,2.42-28.5
		c0.87-5.5-12.39-13.1-13.37-6.92c-2.15,13.57-8.07,39.11,5.39,48.62c9.5,6.71,19.64-1.01,27.13-7.24
		c4.29-3.58,8.23-7.53,12.24-11.41c2.62-2.54,6.13-6.699,9.91-9.71c0.05,0.811,0.11,1.63,0.16,2.44c0.37,5.07,0.57,10.18,1.1,15.24
		c0.68,6.439,3.01,11.97,8.71,15.54c13.34,8.359,24.97-6.16,35.89-13.7c0.391,0.359,0.761,0.72,1.051,1.04
		c1.52,1.649,3.21,3.13,5.039,4.43c3.811,2.72,8.32,4.83,13.011,5.41c6.33,0.77,10.67-2.21,14.93-6.601
		c1.6-1.659,3.13-3.42,4.58-5.26c5.74,7.92,18.31,8.561,27.63,5.44c6.03-2.01,12.1-4.99,17.76-8.72
		c-0.25,5.789,0.801,11.56,4.311,16.25c12.84,17.159,29.97,5.14,43.97-11.04c3.95,8.76,9.61,16.63,18.1,21.35
		c16.37,9.08,29.71-3.24,38.851-18.771c2.79,6.95,9.7,12.921,17.22,8.99c3.21-1.68,6.061-4.33,8.65-7.34
		c0.68,2.42,1.76,4.72,3.319,6.811c12.841,17.159,29.98,5.14,43.98-11.04c3.95,8.76,9.6,16.63,18.1,21.35
		c17.61,9.76,31.7-5.22,40.84-22.32c4.261,4.33,10.49,7.11,16.12,4.88c5.07-2,9.431-6.8,13.04-12.27
		c0.87,3.34,1.561,5.56,1.561,5.56c2.5,4.2,6.06,7.45,11.16,8.88c15.79,4.45,27.239-21.609,31.17-33.09
		C800.06,170.406,787.1,162.306,784.95,168.576z M508.58,206.906c-1.8,1.19-4.85,2.66-6.79,3.26c-0.08-0.33-0.14-0.779-0.12-1.399
		c0.08-2.25-0.38-4.49-0.189-6.79c0.399-4.7,1.579-9.4,3.159-13.82c1.851-5.16,7.86-20.34,15.88-17.34
		c4.08,1.52,7.461,8.27,9.301,12.02c0.029,0.051,0.06,0.101,0.09,0.15c0.03,0.16,0.06,0.32,0.1,0.48c0.101,0.42,0.2,0.84,0.3,1.25
		C524.08,192.996,517.08,201.276,508.58,206.906z M538.78,138.875c0.14-25.8,3.14-52.129,10.21-76.979
		c3.29-11.54,7.89-22.83,15.3-32.37c2.53-3.25,8.229-11.08,12.28-11.84c1.88-0.35,0.43-0.7,2.04,1.4c0.88,1.14,1.43,3.42,1.899,4.72
		c1.23,3.43,2.11,6.95,2.771,10.54c6.439,35.02-7.431,71.11-22.931,101.911c-5.96,11.84-12.6,23.38-19.989,34.399
		C539.11,160.116,538.72,149.446,538.78,138.875z M638.69,206.906c-1.801,1.19-4.841,2.66-6.79,3.26
		c-0.07-0.33-0.131-0.779-0.11-1.399c0.07-2.25-0.39-4.49-0.19-6.79c0.4-4.7,1.57-9.4,3.16-13.82c1.851-5.16,7.86-20.34,15.88-17.34
		c4.08,1.52,7.45,8.27,9.301,12.02c0.02,0.051,0.06,0.101,0.079,0.15c0.04,0.16,0.07,0.32,0.101,0.48c0.1,0.42,0.21,0.84,0.31,1.25
		C654.2,192.996,647.19,201.276,638.69,206.906z M668.89,138.875c0.141-25.8,3.141-52.129,10.221-76.979
		c3.29-11.54,7.89-22.83,15.3-32.37c2.52-3.25,8.229-11.08,12.28-11.84c1.869-0.35,0.43-0.7,2.04,1.4c0.88,1.14,1.43,3.42,1.89,4.72
		c1.229,3.43,2.11,6.95,2.77,10.54c6.44,35.02-7.42,71.11-22.93,101.911c-5.96,11.84-12.59,23.38-19.979,34.399
		C669.22,160.116,668.83,149.446,668.89,138.875z"/>
	<path fill="#364056" d="M598.38,115.536c-0.96,8.76-1.91,17.52-2.86,26.29c-0.609,5.57,12.7,13.01,13.36,6.92
		c0.96-8.76,1.91-17.529,2.86-26.29C612.35,116.886,599.04,109.446,598.38,115.536z"/>
</g>
</svg>
