<?xml version="1.0" encoding="utf-8"?>
<!-- Generator: Adobe Illustrator 16.0.0, SVG Export Plug-In . SVG Version: 6.00 Build 0)  -->
<!DOCTYPE svg PUBLIC "-//W3C//DTD SVG 1.1//EN" "http://www.w3.org/Graphics/SVG/1.1/DTD/svg11.dtd">
<svg version="1.1" id="Layer_1" xmlns="http://www.w3.org/2000/svg" xmlns:xlink="http://www.w3.org/1999/xlink" x="0px" y="0px"
	 width="800px" height="323.983px" viewBox="0 0 800 323.983" enable-background="new 0 0 800 323.983" xml:space="preserve">
<g>
	<path fill="#364056" d="M485.05,162.632c-4.63,8.46-10.66,15.82-17.42,22.58c0.18-6.48-0.08-12.97,0.25-19.45
		c0.38-7.47,0.4-8.17-2.229-9.93c-3.091-3.21-8.36-5.311-9.95-2.42c-3.59,6.52-7.181,13.029-10.771,19.55
		c-2.27,4.12-5.92,13.729-11.04,16.609c-2.79-4.52-0.87-14.52,0.021-18.029c1.29-5.101,3.34-10.08,6.38-14.391
		c6.91-9.82,21.01-14.12,29.17-3.189c1.68,2.25,5.86,5.7,8.97,4.729c3.07-0.96,2.88-3.649,1.11-6.01
		c-8.37-11.21-22.56-19.15-36.75-14.91c-10.61,3.16-17.53,13.29-20.79,23.891c-0.58,0.17-1.11,0.47-1.54,0.939
		c-4.58,4.98-9.31,9.851-14.42,14.311c-1.82,1.59-5.26,4.979-8.78,7.71c0.82-2.86,1.78-5.591,2.13-6.851
		c1.15-4.21,3.52-9.359,3.02-13.79c-0.74-6.6-8.52-11.399-14.77-10.359c-7.71,1.29-15.56,8.52-21.14,13.64
		c-1.82,1.67-3.55,3.41-5.2,5.22c0.41-7.609,1.15-15.2,2.49-22.74c0.92-5.21-11.66-12.479-12.71-6.58
		c-1.1,6.21-1.8,12.45-2.24,18.711c-0.25,0.18-0.47,0.43-0.65,0.729c-5.95,9.92-12.36,19.98-20.05,28.65
		c-0.21,0.229-0.44,0.46-0.7,0.689c0.38-10.25,1.32-20.479,2.03-30.71c0.36-5.319-12.31-12.26-12.7-6.58
		c-0.16,2.32-0.36,4.66-0.56,7c-0.88,0.29-1.58,0.91-1.95,1.971c-4.61,13.01-9.66,25.899-15.1,38.59
		c-2.18,5.09-4.43,10.17-6.82,15.18c1.49-4.649,2.6-9.38,2.52-14.17c-0.1-6.28-2.72-12.38-7.21-16.79c-0.81-0.8-1.77-1.6-2.71-2.29
		c0.11-0.26,0.21-0.55,0.31-0.88c0.48-0.69,0.96-1.39,1.44-2.08c1.22-1.75,2.51-3.439,3.75-5.17c7.03-9.76,15.79-26.5-1.43-31.37
		c-12.4-3.5-24.57,6.07-28.96,17.061c-0.8,0.31-1.43,0.93-1.77,1.92c-1.56,4.56-3.9,8.93-6.34,13.069c-1.55,2.63-3.2,5.2-5.07,7.601
		c-1.66,2.13-4.66,3.899-6.23,5.92c-0.87-2.54-1.31-5.28-1.72-7.92c-0.57-3.721-0.93-7.5-1.09-11.271c0.06-0.43,0.05-0.87-0.04-1.31
		c-0.01-0.431-0.03-0.86-0.04-1.29c-0.02-1.04-0.57-6.021-2.74-7.45c-5.26-3.47-7.78-2.08-8.73,1.58c-0.22,0.21-0.41,0.45-0.55,0.77
		c-2.62,5.99-5.74,11.681-9.67,16.91c-1.97,2.62-4.07,5.19-6.49,7.4c-0.19,0.08-0.35,0.16-0.49,0.25c-0.05-1.66,0.05-3.32,0.31-4.97
		c1.28-11.25,9.26-32.65,23.78-30.45c3.22,0.479,4.32-1.931,3.35-4.62c-1.13-3.141-5.24-5.62-8.38-6.09
		c-11.29-1.711-19.45,5.239-24.74,14.63c-0.86,1.53-1.72,3.2-2.53,4.979c-0.63,0.2-1.15,0.601-1.48,1.24
		c-2.35,4.62-4.95,9.141-7.71,13.54c-3.38,5.4-8.77,15.9-15.36,18.08c-6.26,2.07-8.65-6.5-12.82-9.479
		c-3.44-2.461-7.28-3.271-11.05-1.24c-6.53,3.51-12.08,9.35-18.27,13.439c-0.94,0.69-1.93,1.29-2.97,1.82
		c0.37,3.3,0.32,3.51-0.12,0.62c-0.48-3.86-0.6-7.8-0.88-11.68c-0.67-9.311,0.19-23.891-12.6-25.49
		c-9.15-1.15-19.64,12.74-25.37,18.26c-4.44,4.28-8.96,8.5-14.26,11.7c-0.67,0.41-1.36,0.8-2.05,1.17
		c-0.19-0.96-0.38-1.87-0.41-2.521c-0.37-9.02,0.89-18.199,2.3-27.09c0.83-5.229-11.78-12.45-12.71-6.569
		c-0.22,1.359-0.47,2.84-0.74,4.42c-0.97,0.26-1.74,0.899-2.13,2.04c-1.56,4.56-3.9,8.93-6.34,13.069c-1.55,2.63-3.2,5.2-5.07,7.601
		c-1.67,2.13-4.67,3.899-6.23,5.92c-0.88-2.54-1.32-5.28-1.72-7.92c-0.57-3.721-0.93-7.5-1.09-11.271c0.06-0.43,0.04-0.87-0.04-1.31
		c-0.01-0.431-0.04-0.86-0.04-1.29c-0.02-1.04-0.57-6.021-2.74-7.45c-5.27-3.47-7.78-2.08-8.73,1.58c-0.23,0.21-0.42,0.45-0.55,0.77
		c-2.62,5.99-5.75,11.681-9.68,16.91c-1.96,2.62-4.07,5.19-6.48,7.4c-0.19,0.08-0.35,0.16-0.49,0.25c-0.05-1.66,0.05-3.32,0.31-4.97
		c1.28-11.25,9.26-32.65,23.78-30.45c3.22,0.479,4.32-1.931,3.35-4.62c-1.13-3.141-5.24-5.62-8.38-6.09
		c-11.29-1.711-19.45,5.239-24.74,14.63c-5.01,8.87-9.94,22.649-5.83,32.66c2.82,6.84,11.65,13.569,19.32,10.54
		c4.81-1.9,8.95-6.46,12.39-11.67c0.83,3.18,1.48,5.29,1.48,5.29c2.38,3.989,5.76,7.069,10.6,8.439c7.03,1.98,13.15-2.39,18.06-8.72
		c1.18,4.27,3.31,7.939,6.85,10.439c9.03,6.381,18.67-0.96,25.78-6.89c4.08-3.39,7.83-7.15,11.64-10.84
		c2.48-2.41,5.83-6.36,9.41-9.22c0.05,0.77,0.11,1.54,0.16,2.319c0.35,4.811,0.54,9.67,1.04,14.471
		c0.65,6.13,2.86,11.39,8.28,14.779c12.68,7.95,23.72-5.85,34.11-13.02c0.36,0.34,0.71,0.68,0.99,0.979
		c1.45,1.58,3.05,2.98,4.79,4.221c3.62,2.58,7.9,4.59,12.37,5.14c6.01,0.729,10.13-2.1,14.18-6.28c2.17-2.24,4.18-4.67,6.06-7.22
		c3.73,5.729,11.22,10.4,17.85,7.78c4.81-1.9,8.95-6.46,12.39-11.67c0.83,3.18,1.48,5.29,1.48,5.29
		c2.38,3.989,5.76,7.069,10.6,8.439c14.28,4.021,24.81-18.18,29.03-29.74c0.8-0.31,1.42-0.93,1.74-1.93
		c1.47-4.55,4.17-8.42,8.1-11.21c0.89-0.63,3.64-2.16,6.06-3.26c-2.47,8.2-13.1,15.43-15.09,22.92c-0.84,3.16,0.5,5.91,2.76,8.229
		c3.91,4,7.81,4.24,8.09,10.94c0.52,12.479-7.24,26.59-11.11,38.229c-2.45,7.4-2.3,15.37,5.58,19.381
		c10.34,5.27,17.58-9.921,21.52-17.091c6.97-12.64,12.61-26.02,18.01-39.38c2.77,6.42,9.2,11.78,16.2,8.13
		c6.55-3.43,11.59-11.18,15.82-17.33v2.521c0,3.67,9.52,12.91,12.28,7.6c3.87-7.43,8.59-14.27,14.43-20.29
		c2.52-2.6,7.77-8.01,13-11.58c-0.41,1.221-0.81,2.381-1.09,3.41c-1.21,4.44-2.44,8.92-2.74,13.54
		c-0.41,6.261,1.89,11.95,8.28,14.17c7.3,2.551,13.87-3.79,19.21-7.989c3.319-2.61,6.51-5.36,9.579-8.25
		c2.271,9.06,8.07,17.8,17.471,18.479c7.54,0.54,11.66-7.72,14.84-13.28c0.39-0.689,0.78-1.39,1.17-2.08
		c-0.29,5.87-0.33,10.551-0.4,11.671c-22.88,19.14-48.84,35.71-58.78,64.71c-6.8,19.819,1.66,45.67,23.6,51.489
		c25.83,6.87,35.61-26.909,39.521-45.479c4.34-20.601,6.92-41.48,8.26-62.46c11.76-10,22.76-20.83,30.21-34.46
		C499.66,166.222,487.59,157.981,485.05,162.632z M446.97,255.472c-2.62,13.54-5.13,28.91-14.229,39.79
		c-4.391,5.26-12.98,11.6-19.75,6.57c-5.66-4.2-7.521-13-7.49-19.62c0.1-25.561,23.87-45.86,41.93-60.71
		c1.681-1.38,3.37-2.76,5.07-4.13C451.22,230.142,449.42,242.852,446.97,255.472z"/>
	<path fill="#364056" d="M320.84,113.212c-0.91,8.329-1.81,16.659-2.72,24.989c-0.57,5.29,12.08,12.36,12.71,6.58
		c0.9-8.33,1.81-16.66,2.71-24.99C334.12,114.502,321.47,107.432,320.84,113.212z"/>
	<path fill="#364056" d="M787.24,163.892c-2.58,9.66-6.811,18.82-12.2,27.24c-3.75,5.86-9.74,15.54-17.15,17.21
		c-8.31,1.87-13.27-11.26-16-22.1c6.37-8.62,11.46-17,14.16-21.4c21.98-35.78,43.54-81.551,35.55-124.62
		c-2.069-11.16-6.51-26.41-18.84-30.17c-12.56-3.83-23.14,10.76-28.59,20.029c-15.54,26.391-19.12,61.131-20.06,91.11
		c-0.4,12.79-0.261,25.9,1.21,38.761c-6.301-5.03-13.7-7.601-21.051-3.58c-3.8,2.08-6.67,5.71-8.869,9.81
		c-0.591,0.23-1.11,0.57-1.551,1.01c-8.64,8.82-16.21,9.141-24.409-0.63c-0.891-3.27-1.971-6.45-3.171-9.479
		c-0.81-2.061-3.67-4.08-6.42-5.09c-1.939-1.421-4.14-2.311-5.79-1.931c-5.949,1.38-9.79,8.7-12.239,16.41
		c-0.351,0.2-0.66,0.44-0.94,0.72c-8.64,8.82-16.2,9.141-24.399-0.63c-0.9-3.27-1.98-6.45-3.171-9.479
		c-0.81-2.061-3.67-4.08-6.43-5.09c-1.93-1.421-4.13-2.311-5.78-1.931c-4.55,1.061-7.869,5.58-10.27,11.101
		c-0.68,0.199-1.23,0.67-1.55,1.439c-6.44,15.53-20.03,27.83-35.82,33.21c0.49-3.55,1.021-7.06,1.55-10.49
		c0.76-4.8,1.63-9.569,2.55-14.34c25.921-20.99,44.21-54.18,49.311-86.79c1.7-10.88,4.55-26.27-4.33-34.93
		c-3.021-2.95-7.66-5.48-12.03-4.74c-6.97,1.17-10.859,11.17-13.64,16.62c-7.32,14.31-12.22,29.729-16.94,45.05
		c-5.51,17.86-10.489,35.9-14.27,54.21c-1.771,8.521-3.5,17.521-4.88,26.74c-6.021-2.04-14.42-0.85-13.11,7.33
		c1.061,6.67,5.37,10.59,10.83,12.62c-1.69,23.06,0.22,46.34,10.77,66.04c1.11,2.07,9.801,9.81,11.811,5.05
		c8.83-20.9,9.01-44.14,0.229-65.15c-0.71-1.71-1.5-3.489-2.359-5.289c1.14-0.271,2.229-0.591,3.24-0.94
		c8.5-2.96,16.159-8.271,22.52-14.95c0.28,8.13,3.07,15.94,11.84,18.82c10.641,3.5,18.37-5.84,20.96-15.22
		c1.45-5.301,1.75-10.86,1.26-16.421c3.341,4.051,11.521,4.54,19.75,1.86c-0.069,0.48-0.149,0.94-0.21,1.37
		c-1.63,10.72-1.05,24.38,11.2,28.41c10.641,3.5,18.37-5.84,20.96-15.22c1.46-5.301,1.75-10.86,1.271-16.421
		c3.109,3.771,10.43,4.45,18.069,2.36c-2.05,8.24-2.649,17.89,2.641,24.96c12.2,16.311,28.479,4.88,41.79-10.49
		c3.75,8.33,9.12,15.811,17.2,20.29c25.659,14.23,43.479-26.88,48.51-45.689C801.29,165.441,788.84,157.922,787.24,163.892z
		 M577.53,97.432c2.42-7.23,5.01-14.4,8.149-21.351c1.36-2.979,2.801-5.92,4.36-8.81c1.53-2.85,4.75-6.22,5.64-9.26
		c0.25,2.859-0.1,5.89-0.3,8.729c-0.439,6.37-1.36,12.7-2.75,18.931c-4.34,19.489-13.31,37.659-25.32,53.569
		c-1.14,1.511-2.359,3.061-3.619,4.61C567.71,128.191,572.42,112.701,577.53,97.432z M553.71,254.792
		c-2.86-12.391-3.229-25.511-2.39-38.5c0.91,2.75,1.67,5.56,2.26,8.42C555.63,234.651,555.65,244.901,553.71,254.792z
		 M604.8,188.872c-1.25,4.409-3.85,6.31-6.1,9.859c-1.16,1.811-0.8,3.21-1.2,1.511c-0.53-2.271-0.16-4.83,0.03-7.12
		c0.31-3.82,1.01-7.62,1.93-11.33c1-4.03,2.3-7.931,3.95-11.73c0.33-0.77,0.82-2.14,1.42-3.6c0.92,4.35,1.38,8.79,1.24,13.229
		C605.97,182.762,605.65,185.912,604.8,188.872z M657.77,188.872c-1.26,4.409-3.85,6.31-6.109,9.859c-1.15,1.811-0.8,3.21-1.2,1.511
		c-0.53-2.271-0.16-4.83,0.03-7.12c0.319-3.82,1.02-7.62,1.939-11.33c0.99-4.03,2.29-7.931,3.94-11.73c0.33-0.77,0.82-2.14,1.42-3.6
		c0.92,4.35,1.38,8.79,1.25,13.229C658.94,182.762,658.61,185.912,657.77,188.872z M707.97,200.042c-1.71,1.14-4.6,2.529-6.45,3.1
		c-0.069-0.32-0.13-0.75-0.109-1.33c0.07-2.14-0.36-4.27-0.17-6.46c0.37-4.45,1.49-8.92,3-13.13c1.75-4.9,7.47-19.32,15.09-16.479
		c3.87,1.46,7.08,7.859,8.83,11.43c0.03,0.04,0.06,0.09,0.08,0.14c0.04,0.15,0.06,0.311,0.1,0.46c0.09,0.391,0.2,0.79,0.29,1.19
		C722.71,186.821,716.06,194.702,707.97,200.042z M736.67,135.392c0.14-24.51,2.99-49.53,9.71-73.15
		c3.12-10.96,7.5-21.689,14.54-30.76c2.4-3.08,7.82-10.52,11.67-11.25c1.78-0.33,0.41-0.66,1.94,1.33
		c0.83,1.09,1.359,3.25,1.8,4.479c1.17,3.271,2,6.62,2.63,10.021c6.12,33.28-7.05,67.57-21.79,96.85
		c-5.66,11.25-11.97,22.211-18.99,32.681C736.99,155.582,736.62,145.441,736.67,135.392z"/>
</g>
</svg>
